# xmcd
# 
# Track frame offsets:
#     150
#     22220
#     43516
#     60832
#     85919
#     103299
#     125891
#     151329
#     172251
#     194708
#     216222
#     234470
#     255762
#     280200
#     311577
# 
# Disc length: 4488
# 
# Revision: 2
# Processed by: cddbd v1.5.2PL0 Copyright (c) Steve Scherf et al.
# Submitted via: fre:ac v1.0.17
# 
DISCID=d911860f
DTITLE=Various Artist - Kiss -dramatic love story-
DYEAR=2002
DGENRE=JPop
TTITLE0=小田和正 - Love storyは突然に
TTITLE1=CHAGE and ASKA - SAY YES
TTITLE2=藤井フミヤ - TRUE LOVE
TTITLE3=今井美樹 - PIECE OF MY WISH
TTITLE4=井上陽水 - Riverside hotel
TTITLE5=小林明子 - 恋におちて
TTITLE6=杏里 - SUMMER CANDLES
TTITLE7=岡村孝子 - 夢をあきらめないで
TTITLE8=オリジナルラブ - 接吻 kiss
TTITLE9=松本英子 - Squall
TTITLE10=森川由加里 - SHOW ME
TTITLE11=辛島美登里 - Silent eve
TTITLE12=久保田利伸 - 夢 with You
TTITLE13=MISIA - Everything
TTITLE14=SENS - 輝く季節の中で
EXTD=YEAR: 2002 ID3G: 29
EXTT0=
EXTT1=
EXTT2=
EXTT3=
EXTT4=
EXTT5=
EXTT6=
EXTT7=
EXTT8=
EXTT9=
EXTT10=
EXTT11=
EXTT12=
EXTT13=
EXTT14=
PLAYORDER=
